<?xml version="1.0" encoding="UTF-8"?>
<svg width="420px" height="126px" viewBox="0 0 420 126" version="1.1" xmlns="http://www.w3.org/2000/svg" xmlns:xlink="http://www.w3.org/1999/xlink">
    <title>Vrbo_UK_logo_1_left</title>
    <g id="Vrbo_UK_logo_1_left" stroke="none" stroke-width="1" fill="none" fill-rule="evenodd">
        <g id="Vrbo-Logo_Wordmark_White" transform="translate(0.000000, -0.000000)" fill="#FFFFFF" fill-rule="nonzero">
            <path d="M188.274525,29.3923933 C194.678819,30.271882 199.010181,35.003518 198.139006,44.3238483 C196.000229,67.2036374 176.008112,90.6237094 146.395171,89.9873161 L145.494873,89.960643 L145.572384,89.7978482 C174.582837,89.8713041 192.711885,65.716137 194.719894,44.2424509 C195.506932,35.8161682 191.624739,31.5332104 185.944546,30.7536486 C177.579777,29.604871 167.435143,34.6645797 161.332025,43.2263531 L161.132295,43.5098745 L161.024971,43.366271 C167.440528,33.6429245 178.849937,28.0979765 188.274525,29.3923933 Z M247.794513,29.0961201 C267.453915,30.2389922 273.133445,44.5100034 272.997634,52.2857688 C272.631005,73.2387634 256.24338,87.9126797 228.17311,89.8594274 L227.318924,89.9145173 L227.380536,89.7874585 C253.520417,87.8153917 269.642783,71.0151063 270.005165,50.2283343 C270.12978,43.1252024 265.232655,30.9325212 248.249269,29.2748048 L247.730914,29.2278118 L247.794513,29.0961201 Z M143.944844,6.36884821 C146.888479,10.2034723 143.252779,17.9283431 141.206301,23.1299095 L141.121973,23.345164 L124.925409,65.1556201 C123.83495,67.9383517 122.567606,71.0453489 122.271472,74.4322739 C121.586749,82.2632772 128.507356,89.0331738 142.217563,89.7456892 L142.6351,89.7654211 L142.574151,89.8924805 C126.655171,89.4087286 118.978895,81.6170811 119.734134,72.9803562 C120.028087,69.6191302 121.073454,66.8474399 122.110481,64.2802888 L122.245635,63.9465713 L138.3786,22.4656753 C140.481345,16.7096614 143.327559,11.0417378 140.414238,7.5141781 L140.283923,7.36216088 L140.283923,7.13716002 L143.944844,6.36884821 Z M244.919504,28.9336563 L244.858555,29.0600538 C220.394774,31.0261643 202.572458,47.951524 202.211401,68.6211632 C202.087442,75.7262602 207.098202,88.1544025 223.986795,89.58952 L224.502214,89.6296269 L224.443252,89.7547005 C204.765301,88.6177847 199.083121,74.2210373 199.218932,66.4432869 C199.587276,45.3931318 217.524203,30.6330746 244.919504,28.9336563 Z M183.482269,32.2253528 C188.678843,32.9387379 191.993282,36.7558116 191.300979,44.1616491 C189.434387,64.122747 171.4981,88.9074689 146.448442,89.5456424 L145.687194,89.5575601 L145.749468,89.42653 C168.623935,88.0182894 186.272678,62.599147 188.00244,44.0961341 C188.610606,37.5850059 185.622775,34.2000663 181.15229,33.5866081 C174.711507,32.702212 166.724359,36.8966847 161.658853,43.6750252 L161.460427,43.9439276 L161.351116,43.7990006 C166.873636,35.7638224 175.99149,31.1969665 183.482269,32.2253528 Z M247.616502,29.4677686 C262.721944,30.6907145 267.371302,41.486124 267.257354,48.0508553 C266.903187,68.2694273 251.410431,87.4223518 228.201015,89.489575 L227.495345,89.5469719 L227.558282,89.4146183 C248.474427,87.2698309 264.035,66.031072 264.385458,45.9940826 C264.488429,40.0924951 260.147544,31.0906086 247.927607,29.6384948 L247.554891,29.5968132 L247.616502,29.4677686 Z M151.569181,4.83116578 C154.048289,8.17287281 149.541486,18.0546301 147.91352,22.2667575 L147.84996,22.4321899 L130.29529,67.4542027 C129.213444,70.1158302 127.632742,74.0692285 127.336608,77.455491 C126.777811,83.8504066 132.307563,88.7321423 142.496248,89.388417 L142.806421,89.407008 L142.746134,89.5327439 C130.428451,89.0655361 124.169905,83.1903665 124.797945,76.0048975 C125.092409,72.6365549 126.413209,69.3041957 127.483171,66.5821847 L127.615517,66.2451539 L144.607069,22.4884401 C146.4264,17.9789972 150.164593,9.89643284 147.689875,6.02709113 L147.578339,5.86153742 L147.578339,5.63587478 L151.569181,4.83116578 Z M244.743282,29.3012018 L244.680345,29.4322317 C224.353816,31.5670929 208.29505,53.1744561 207.951217,72.8567379 C207.848246,78.7635669 211.505411,87.8945772 224.288278,89.2240605 L224.678436,89.2619491 L224.616162,89.391655 C209.494158,88.399004 204.846125,77.2449169 204.961398,70.6782005 C205.314506,50.4909898 221.975476,31.0290761 244.743282,29.3012018 Z M159.428038,3.22988752 C160.699409,6.90199168 155.494641,18.7998929 154.447038,21.5477865 L154.408349,21.6501795 L135.663847,69.7527186 C134.572726,72.5347887 132.817788,77.093703 132.520993,80.4799662 C132.210948,84.0250536 133.997684,86.5397694 137.618194,87.8527153 C139.984567,88.7108778 142.055611,89.012495 142.872449,89.0982358 L142.949916,89.1061029 L142.896254,89.2186029 C134.091095,88.5972039 129.371514,84.6510857 129.873682,78.9076073 C130.149369,75.7544004 131.775106,71.6215322 132.870185,68.8367727 L132.985399,68.5436699 L151.270795,21.5290761 C152.498581,18.4257359 157.445134,7.42058683 155.6243,4.34461952 L155.547833,4.22584726 L155.547833,4.00018462 L159.428038,3.22988752 Z M247.438028,29.8413362 C257.990836,31.0225908 261.488785,38.4668108 261.395374,43.8152139 C261.055636,63.2921563 246.470106,86.7780835 228.227214,89.110548 L227.67329,89.1747279 L227.736889,89.0423743 C243.681045,86.9108222 258.186933,61.0363836 258.522816,41.7577794 C258.605331,37.0694094 255.746294,31.3625786 247.658039,30.0194271 L247.373766,29.9743515 L247.438028,29.8413362 Z M178.81085,35.0756506 C182.555246,35.5898438 185.095896,38.5241199 184.582466,44.0141412 C183.03528,60.5638751 167.563709,86.0726946 146.534617,89.0385791 L145.89568,89.121522 L145.956629,88.9944625 C165.272198,84.9656231 179.756886,58.9892727 181.175941,43.8050227 C181.593972,39.3367701 179.621739,36.8677164 176.359636,36.4203617 C171.841975,35.7998695 166.146902,38.8980144 161.99002,44.1177177 L161.786836,44.3761279 L161.676862,44.2318626 C166.043336,38.1072065 173.13132,34.295427 178.81085,35.0756506 Z M5.45618723,12.4698795 C7.56456202,13.9939806 9.98794461,15.9493213 12.2947115,26.3371155 L12.3698902,26.678847 L25.8927307,89.0386539 L22.8330806,89.0386539 C22.8330806,89.0386539 9.42087,27.2517785 9.40220956,27.1667029 C7.46539355,18.4659364 5.05448395,14.6608862 0.200844835,12.6824315 L0,12.6021457 L0,12.4698795 L5.45618723,12.4698795 Z M15.6574646,12.4698795 C16.0813648,15.5607443 16.3973668,17.7791455 18.2416664,25.5691604 L18.3292436,25.9384228 L32.0106981,89.0373244 L28.9517144,89.0373244 L15.3115795,26.1331663 C13.537307,18.8552767 12.8714212,15.4674963 10.6666383,12.7448463 L10.5491618,12.6021457 L10.5491618,12.4698795 L15.6574646,12.4698795 Z M244.565801,29.6713944 L244.502201,29.8057332 C229.145675,31.9233884 214.019695,58.2881965 213.6911,77.0916515 C213.60923,81.7832582 216.468392,87.722566 224.575088,88.8538666 L224.856712,88.8909619 L224.791126,89.0272861 C214.337028,88.1762533 210.729106,80.2628405 210.823179,74.9137759 C211.158399,55.7152453 226.536788,31.5792695 244.565801,29.6713944 Z M73.6226856,38.2872072 C75.3193231,38.2872072 76.3388961,39.2547109 76.4349571,41.0692768 C76.5920001,44.0439749 72.7213295,52.8698979 70.8606699,57.4181153 L70.7693398,57.6419145 L58.1316736,88.9719625 L54.9835194,88.9719625 L67.7278461,57.4003695 C69.4489961,53.2874859 73.6683975,43.7309048 73.5345747,41.1903802 C73.4709756,39.9806696 72.8389594,39.4969178 71.8703984,39.4969178 C69.5812121,39.4969178 65.6429921,45.1202532 63.0328175,50.8452748 L62.9168414,51.1016686 L62.7585062,51.1016686 C65.3455311,44.5713492 69.6470811,38.2872072 73.6226856,38.2872072 Z M77.0143047,35.9890218 C80.1624594,35.9890218 81.9597955,37.9240293 82.1068685,40.7067607 C82.325993,44.861691 78.8928091,52.7465421 76.837634,57.7259875 L76.7228094,58.0046953 L64.4289757,88.9720949 L61.280159,88.9720949 L73.8025516,57.7624885 C75.6131378,53.0454114 79.4032451,44.5774374 79.2058231,40.8272023 C79.0845873,38.5295463 77.6827574,37.1980706 75.2613552,37.1980706 C69.8016031,37.1980706 65.2591351,43.9943265 62.5579303,50.8479495 L62.4587293,51.1018009 L62.3050316,51.1018009 C64.8682068,43.3313297 70.1628297,35.9890218 77.0143047,35.9890218 Z M83.788136,31.2708859 C89.8432978,31.2708859 93.1961616,35.1415626 93.4578456,40.1021701 C93.7882073,46.3702532 91.3279254,52.4074073 88.9201996,58.4400483 L88.7561517,58.8513604 L77.1440207,88.9716978 L73.9958667,88.9716978 L85.8365562,58.6091536 C88.0658365,52.6817042 90.8701579,46.1500612 90.5574625,40.2226118 C90.3216163,35.7470797 87.3649219,32.4805964 82.0351865,32.4805964 C70.9169555,32.4805964 64.5295739,41.1614335 61.6799791,50.8087724 L61.5947095,51.1014039 L61.4449866,51.1014039 C63.9896121,40.6018044 71.2167194,31.2708859 83.788136,31.2708859 Z M80.3976433,33.5696668 C84.9999639,33.5696668 87.5757261,36.4728399 87.7797735,40.3441784 C88.0610435,45.6688873 85.0588307,52.4989682 82.9366497,58.0018844 L82.7965207,58.3667483 L70.8471825,88.9714993 L67.5771297,88.9714993 L79.7616524,58.2469684 C81.9034835,52.9237124 85.1344491,45.3034623 84.8853528,40.5850617 C84.7071426,37.1981368 82.5202626,34.7793774 78.6453561,34.7793774 C70.5412024,34.7793774 64.8985484,42.5341961 62.1069605,50.8360747 L62.0188358,51.1012053 L61.8783878,51.1012053 C64.4965497,42.082641 70.5205747,33.5696668 80.3976433,33.5696668 Z M116.633812,28.9730314 C120.629953,28.9730314 123.911931,31.5128942 124.205414,37.0776951 C124.805531,48.4543679 114.492099,57.6978015 103.210733,59.5246975 L102.868587,59.5777824 L102.741389,59.4566789 C112.434285,57.2788028 122.025821,48.5692838 121.483904,38.2874057 C121.228182,33.4485634 118.323825,31.1502457 114.810638,31.1502457 C108.300346,31.1502457 102.650628,36.6303405 99.0692053,43.8720597 C99.0413804,44.2413259 99.0307804,44.6244891 98.9910314,44.9851522 C102.235246,38.2854204 107.251623,33.2070184 112.860929,33.2070184 C116.009083,33.2070184 118.418561,35.2631293 118.642482,39.4964545 C119.109459,48.3593183 110.780925,56.9841465 102.728912,59.1514412 L102.485005,59.2151338 L102.35847,59.0933687 C109.013185,56.6746093 116.329066,48.4488421 115.920309,40.7068269 C115.735475,37.1981368 113.702292,35.3835709 111.037756,35.3835709 C106.166464,35.3835709 101.756929,40.2866046 98.7677716,46.4867022 C98.6935731,46.9472922 98.6206993,47.4105293 98.5279507,47.8598693 C101.192487,42.0872734 105.086605,37.4403436 109.086721,37.4403436 C111.509449,37.4403436 113.045764,39.0127027 113.198799,41.9165374 C113.539289,48.3728851 107.685036,56.2469345 102.293497,58.7645404 L102.103411,58.8511619 L101.976875,58.7307202 C105.959767,56.1901957 110.758185,48.4488421 110.477289,43.1255862 C110.362016,40.9490337 109.201995,39.6182197 107.265536,39.6182197 C104.023308,39.6182197 100.62142,44.1579432 98.1562933,49.4898021 C97.9396588,50.3414966 97.7011626,51.1872351 97.4321915,52.0323119 C99.7502451,46.7024383 102.8613,41.6743306 105.314501,41.6743306 C106.889241,41.6743306 107.551069,42.7629377 107.634543,44.3352968 C107.840993,48.2594197 104.722122,55.6906954 101.8685,58.3549982 L101.721154,58.4885134 L101.593293,58.3667483 C104.074982,53.9335693 105.23434,48.7638434 104.979944,45.6118459 C104.91237,44.7661073 104.581787,43.8515449 103.492653,43.8515449 C102.062977,43.8515449 99.3565341,48.5330371 97.0855992,53.1754006 L96.9724231,53.4074643 L96.9657984,53.4074643 C96.3969398,55.0610001 95.7621269,56.7406799 95.0846235,58.536206 L94.8286044,59.2151338 L83.4423825,88.9714993 L80.2935662,88.9714993 L91.7890984,58.9722653 C94.2363378,52.561064 96.6067281,46.996263 96.2304336,39.8604265 C95.9435754,34.416729 92.2084548,30.182742 85.4272036,30.182742 C71.4008655,30.182742 64.0630359,39.8890125 61.2596472,50.7710942 L61.1760818,51.1012053 L61.0488836,51.1012053 C63.6286211,39.3495422 71.4267952,28.9730314 87.1801531,28.9730314 C94.6868315,28.9730314 98.8114966,33.6907702 99.1308167,39.7386613 C99.1811657,40.6929297 99.1917657,41.6074921 99.1659286,42.4909514 C103.025597,34.7032742 109.371593,28.9730314 116.633812,28.9730314 Z M167.379844,1.61292537 C168.42322,2.75014903 161.181184,20.3220888 160.570804,21.9672118 L160.554206,22.0125633 L141.033928,72.050772 C140.085241,74.5912966 137.870537,80.2381567 137.595603,83.3828745 C137.315357,86.587568 139.742913,88.1520149 142.918381,88.7625841 L143.09891,88.796131 L143.035311,88.9278228 C138.259418,88.1899519 134.703832,85.9882521 135.058265,81.932281 C135.334875,78.767875 137.144676,73.9365632 138.249511,71.10838 L138.354154,70.8410615 L157.426589,21.7710182 C158.438987,18.999425 163.388555,7.35474177 163.37731,2.83522851 L163.373765,2.64594408 L163.373765,2.4209432 L167.379844,1.61292537 Z M247.252596,30.2289333 C253.383282,31.2374667 255.727835,35.4608654 255.655624,39.5803666 C255.328347,58.2979906 241.666256,86.2931622 228.259078,88.7332243 L227.852891,88.7993075 L227.919803,88.6603362 C238.806507,86.6439312 252.338535,56.0113862 252.66183,37.5229322 C252.72165,34.0876615 251.240902,31.5231944 247.400929,30.4376909 L247.181047,30.3778309 L247.252596,30.2289333 Z M174.015811,37.9084778 C176.554475,38.2565673 178.078865,40.2769429 177.756894,43.7240886 C176.516653,56.9862819 162.079251,83.8930336 146.584868,88.5297283 L146.11503,88.6633803 L146.203804,88.4787473 C159.803406,82.6267395 173.360609,55.3950161 174.457693,43.6585736 C174.696852,41.1054754 173.499069,39.5192193 171.686495,39.2703948 C168.962931,38.8961919 165.163458,41.2301157 162.288364,44.6010593 L162.11351,44.8087251 L162.003536,44.6644599 C165.47896,40.2279721 170.272078,37.3942846 174.015811,37.9084778 Z M244.385603,30.0482709 L244.318029,30.1892273 C233.776482,32.305559 219.743612,63.5502389 219.432904,81.3259695 C219.373006,84.7774166 220.643341,87.6734472 224.814678,88.4726439 L225.036909,88.512762 L224.971323,88.6490862 C218.604791,87.958863 216.491447,83.2722268 216.562995,79.148755 C216.882979,60.8350078 231.31798,31.9680577 244.385603,30.0482709 Z M175.584456,1.42108547e-14 L146.403743,74.3495527 C145.311959,77.1316227 142.825633,82.8122328 142.546062,85.9562889 C142.437702,87.1760701 142.863952,88.0652622 143.242134,88.3545625 L143.293351,88.3902687 L143.19729,88.5907847 C142.943556,88.5133576 142.771971,88.4319605 142.522213,88.3128422 C141.159469,87.6590161 140.118035,86.0304072 140.177659,84.6751077 C140.315056,81.5822161 142.522609,76.0989475 143.636143,73.3561267 L143.72397,73.1398421 L163.570193,22.1341299 C163.894847,21.1763012 171.637831,2.15047515 171.5831,0.841560288 L171.579039,0.807356072 L175.584456,1.42108547e-14 Z M24.0133551,12.4698795 C23.2152364,15.0227541 22.7635897,18.7437621 24.6535474,26.7718377 L24.7424462,27.1454339 L36.0980067,80.5164638 L34.0860086,84.7110938 L21.3455748,25.7436792 C19.7538697,18.7651415 19.5606256,15.9495382 19.621325,12.6472783 L19.6248131,12.4698795 L24.0133551,12.4698795 Z M32.9330583,12.4698795 L32.9330583,12.6021457 C30.1312749,15.0884728 29.388021,19.4379309 30.9962715,27.7257496 L31.0676781,28.0885776 L40.184649,71.998926 L38.1486588,76.2427404 L27.8467482,27.2577604 C26.1499786,18.9624029 26.563684,15.7387012 28.0169089,12.609927 L28.0826698,12.4698795 L32.9330583,12.4698795 Z M45.5355379,12.4698795 L45.5355379,12.6021457 C37.7407943,14.092964 35.4495555,18.4145425 37.3655856,28.3099073 L44.2792886,63.4654371 L42.2253043,67.7458073 L34.3112671,28.3650735 C31.8340901,16.6286179 36.2492899,13.4994282 38.3359299,12.4698795 L45.5355379,12.4698795 Z M83.3196509,12.4698795 L83.3196509,12.6021457 C71.4765856,16.1534105 66.1738416,22.955948 57.0876334,39.8909785 L56.8111251,40.4072698 L56.6071928,40.2730098 C64.597798,23.3339306 68.4256679,16.3506121 74.7319103,12.5830701 L74.9237738,12.4698795 L83.3196509,12.4698795 Z M69.1123713,12.4698795 L69.1123713,12.6021457 C66.0292158,17.2226721 64.041448,22.081621 56.6288844,39.6038831 L56.4025941,40.1387497 L56.1986619,40.0051543 C61.0380962,26.556077 63.5273038,19.9646706 62.9652654,12.8993285 L62.9444207,12.6526593 L62.9470864,12.4698795 L69.1123713,12.4698795 Z M58.1126926,12.4698795 C62.3359495,16.7324501 60.8536529,23.7199404 56.1379504,39.3932798 L55.9940632,39.8708942 L55.7907973,39.7366342 C60.2792861,22.0257126 58.8440584,15.1291326 52.2682086,12.6751553 L52.0673678,12.6021457 L52.0673678,12.4698795 L58.1126926,12.4698795 Z" id="Logo"></path>
        </g>
    </g>
</svg>